<svg width="94" height="94" viewBox="0 0 94 94" fill="none" xmlns="http://www.w3.org/2000/svg">
<path d="M55.9961 47C55.9961 51.9685 51.9685 55.9961 47 55.9961C42.0315 55.9961 38.0039 51.9685 38.0039 47C38.0039 42.0315 42.0315 38.0039 47 38.0039C51.9685 38.0039 55.9961 42.0315 55.9961 47Z" fill="white"/>
<path d="M68.0387 31.0832C67.6062 29.9114 66.9163 28.8507 66.0199 27.9801C65.1492 27.0836 64.0893 26.3937 62.9167 25.9613C61.9658 25.5919 60.5372 25.1523 57.9059 25.0325C55.0595 24.9027 54.2061 24.8748 47 24.8748C39.7932 24.8748 38.9398 24.902 36.0941 25.0318C33.4628 25.1523 32.0335 25.5919 31.0833 25.9613C29.9107 26.3937 28.85 27.0836 27.9801 27.9801C27.0837 28.8507 26.3938 29.9107 25.9606 31.0832C25.5912 32.0342 25.1516 33.4635 25.0319 36.0948C24.9021 38.9405 24.8741 39.7939 24.8741 47.0007C24.8741 54.2067 24.9021 55.0602 25.0319 57.9066C25.1516 60.5378 25.5912 61.9664 25.9606 62.9174C26.3938 64.09 27.0829 65.1499 27.9794 66.0206C28.85 66.917 29.91 67.6069 31.0826 68.0394C32.0335 68.4094 33.4628 68.849 36.0941 68.9688C38.9398 69.0986 39.7925 69.1259 46.9993 69.1259C54.2068 69.1259 55.0602 69.0986 57.9052 68.9688C60.5365 68.849 61.9658 68.4094 62.9167 68.0394C65.2704 67.1314 67.1308 65.2711 68.0387 62.9174C68.408 61.9664 68.8477 60.5378 68.9681 57.9066C69.0979 55.0602 69.1252 54.2067 69.1252 47.0007C69.1252 39.7939 69.0979 38.9405 68.9681 36.0948C68.8484 33.4635 68.4088 32.0342 68.0387 31.0832ZM47 60.8584C39.3457 60.8584 33.1408 54.6542 33.1408 47C33.1408 39.3457 39.3457 33.1415 47 33.1415C54.6536 33.1415 60.8585 39.3457 60.8585 47C60.8585 54.6542 54.6536 60.8584 47 60.8584ZM61.4064 35.8323C59.6178 35.8323 58.1677 34.3822 58.1677 32.5936C58.1677 30.805 59.6178 29.3549 61.4064 29.3549C63.195 29.3549 64.6451 30.805 64.6451 32.5936C64.6444 34.3822 63.195 35.8323 61.4064 35.8323Z" fill="white"/>
<path d="M47 0C21.0466 0 0 21.0466 0 47C0 72.9534 21.0466 94 47 94C72.9534 94 94 72.9534 94 47C94 21.0466 72.9534 0 47 0ZM73.8255 58.1268C73.695 60.9997 73.2381 62.9612 72.5712 64.6781C71.1691 68.3033 68.3033 71.1691 64.6781 72.5712C62.9619 73.2381 60.9997 73.6942 58.1275 73.8255C55.2495 73.9567 54.3301 73.9883 47.0007 73.9883C39.6706 73.9883 38.7519 73.9567 35.8732 73.8255C33.001 73.6942 31.0388 73.2381 29.3226 72.5712C27.5211 71.8934 25.8903 70.8313 24.542 69.458C23.1694 68.1104 22.1073 66.4789 21.4296 64.6781C20.7626 62.9619 20.3058 60.9997 20.1752 58.1275C20.0426 55.2488 20.0117 54.3294 20.0117 47C20.0117 39.6706 20.0426 38.7512 20.1745 35.8732C20.305 33.0003 20.7612 31.0388 21.4281 29.3219C22.1058 27.5211 23.1687 25.8896 24.542 24.542C25.8896 23.1687 27.5211 22.1066 29.3219 21.4288C31.0388 20.7619 33.0003 20.3058 35.8732 20.1745C38.7512 20.0433 39.6706 20.0117 47 20.0117C54.3294 20.0117 55.2488 20.0433 58.1268 20.1752C60.9997 20.3058 62.9612 20.7619 64.6781 21.4281C66.4789 22.1058 68.1104 23.1687 69.4587 24.542C70.8313 25.8903 71.8942 27.5211 72.5712 29.3219C73.2388 31.0388 73.695 33.0003 73.8262 35.8732C73.9574 38.7512 73.9883 39.6706 73.9883 47C73.9883 54.3294 73.9574 55.2488 73.8255 58.1268Z" fill="white"/>
</svg>
