<svg width="120" height="135" viewBox="0 0 120 135" fill="none" xmlns="http://www.w3.org/2000/svg">
<path d="M119.564 88.1083C119.564 66.002 119.564 43.8989 119.564 21.7895C119.564 4.85108 109.853 0 96.7637 0C70.6345 0 44.4971 0 18.3652 0C18.297 0 18.226 0.00310576 18.1522 0.0155285C18.0403 0.0279512 17.8901 0.0527967 17.8245 0.049691C17.789 0.049691 17.7535 0.049691 17.7044 0.0559024C0.748263 2.292 0 16.8018 0 32.4761C0 55.7439 0 79.0117 0 102.28C0 116.634 0.434211 133.141 17.2538 133.141C35.0974 133.141 52.9383 133.141 70.782 133.141C80.9409 133.141 100.863 137.473 110.303 130.628C123.051 121.386 119.564 103.084 119.564 88.1083ZM114.378 26.1095C114.334 27.6282 114.288 29.063 114.288 30.3332C114.288 30.7028 114.288 31.0693 114.288 31.4357C114.288 32.0445 113.408 33.5041 112.322 34.6936C110.473 36.7216 108.624 38.7496 106.783 40.7745C105.702 41.9671 105.008 43.0013 105.249 43.0541C105.486 43.11 106.559 42.1628 107.644 40.9671C109.096 39.3615 110.667 37.6192 112.338 35.7744C113.419 34.5756 114.291 34.8147 114.291 36.3055C114.291 37.7931 113.438 39.9391 112.382 41.1006C111.33 42.2591 110.844 43.2032 111.295 43.2032C111.745 43.2032 112.603 42.7125 113.204 42.1069C113.807 41.5044 114.291 42.405 114.291 44.1194C114.291 50.3307 114.291 56.5452 114.291 62.7566C114.291 67.1604 114.375 71.614 114.479 76.0924C114.52 77.8067 114.31 80.2664 113.933 81.5615C113.556 82.8566 113.501 83.4994 113.9 83.0367C114.299 82.5708 114.656 83.5833 114.695 85.2976C114.733 86.9747 114.758 88.6487 114.785 90.3257C114.809 92.0401 113.968 94.4284 112.911 95.6551C111.491 97.3104 110.074 98.9658 108.651 100.624C107.597 101.854 106.715 101.77 106.68 100.435C106.658 99.6024 106.641 98.798 106.641 98.0185C106.641 88.571 111.666 58.6912 101.089 55.157C101.024 55.1352 100.942 55.1197 100.86 55.1104C100.732 55.098 100.502 55.0545 100.344 55.0296C100.188 55.0048 100.035 54.952 100.002 54.893C99.9697 54.834 99.9069 54.8278 99.8578 54.8806C99.8141 54.9334 99.5219 54.9768 99.2105 55.0358C99.0385 55.0669 98.8501 55.1135 98.6534 55.1756C90.5563 57.7471 93.0114 63.3404 92.6072 72.1202C92.4079 76.462 91.4849 80.4248 90.0348 83.9901C89.4012 85.5461 87.9074 87.7201 86.8369 88.9344C86.3535 89.481 85.8701 90.0338 85.3895 90.5773C84.3217 91.7885 83.8329 92.714 84.2808 92.6208C84.7286 92.5308 84.2644 93.4749 83.1474 94.6271C78.0024 99.9285 71.2599 103.264 64.1677 104.255C62.6712 104.46 61.7181 104.205 62.054 103.823C62.3899 103.441 62.1988 102.848 61.6362 102.469C61.0764 102.099 60.0496 102.385 59.3259 103.143C58.6022 103.901 56.7943 104.46 55.2951 104.252C52.8864 103.922 50.4969 103.314 48.1757 102.379C47.8398 102.245 47.5148 102.096 47.1925 101.938C46.6518 101.683 47.0614 100.494 48.0992 99.2919C49.1369 98.0962 49.0796 98.0651 47.9681 99.2266V99.2391C46.8566 100.397 45.1389 100.935 44.1722 100.348C43.2054 99.7639 43.3556 98.2856 44.4671 97.1272C45.7206 95.8228 46.9768 94.5091 48.2275 93.2016C49.339 92.0401 51.3844 91.5929 52.84 92.0463C54.8117 92.6581 56.8271 93.0401 58.837 93.1612C65.5359 93.5588 71.8443 90.7202 76.6643 85.9374C77.8004 84.81 77.844 84.8597 76.738 86.0244C76.0335 86.7635 75.2879 87.4561 74.5069 88.099C73.2807 89.099 71.9453 90.0152 71.634 90.3382C71.3227 90.6612 71.4374 91.0928 71.8962 91.2854C72.355 91.478 73.5866 90.6301 74.6434 89.4096C79.4662 83.8193 84.2889 78.2198 89.1035 72.6109C90.1604 71.3811 90.103 71.3158 88.9834 72.4649C86.8696 74.6358 84.7696 76.7912 82.705 78.9123C81.5881 80.0646 81.4161 79.8844 82.1862 78.4092C83.7291 75.4185 84.8269 72.1171 85.3403 68.6325C85.4332 68.0114 85.4987 67.4027 85.537 66.8002C85.608 65.7846 86.4928 63.9989 87.5851 62.8156C90.469 59.6944 93.2627 56.6601 95.9471 53.7439C97.0367 52.5606 97.826 51.4705 97.6976 51.3214C97.5693 51.1724 96.5943 52.0202 95.5102 53.2159C92.8366 56.1849 90.1822 59.1385 87.5414 62.0857C86.4627 63.2845 86.4573 63.2876 87.5305 62.0826C90.1877 59.1074 92.9595 56.0017 95.4829 53.1786C96.5561 51.9767 97.4054 50.9736 97.3781 50.9426C97.3481 50.9115 96.4578 51.8556 95.3818 53.0544C92.7438 55.9831 90.1303 58.8869 87.5305 61.7783C86.4518 62.9771 85.5588 62.5547 85.2966 60.8652C85.1792 60.0826 85.0181 59.3155 84.8269 58.567C84.4064 56.921 84.7696 54.7097 85.8729 53.542C87.4459 51.8774 89.0134 50.2158 90.5864 48.5543C91.6897 47.3834 91.8808 45.93 90.9742 45.3896C90.062 44.8523 88.3935 45.4424 87.2847 46.607C86.2252 47.7251 85.171 48.8431 84.1087 49.958C83.0054 51.1258 81.6291 51.2842 80.9627 50.3866C80.2964 49.4891 80.6104 47.8803 81.7192 46.7188C82.0988 46.3244 82.492 45.9113 82.9044 45.4859C84.0131 44.3243 86.1268 43.5945 87.6288 43.6721C91.4657 43.8616 95.5075 43.3212 97.7604 43.3212C103.673 43.3212 105.781 39.4515 106.464 34.5601C106.704 32.8675 106.778 31.414 106.843 31.3457C106.882 31.3053 106.917 31.2649 106.958 31.2246L111.207 26.7337C111.751 26.1095 112.289 25.4915 112.829 24.8734C113.717 23.8454 114.424 24.3952 114.378 26.1095ZM112.357 35.4421C110.768 37.2341 109.244 38.9142 107.747 40.5385C106.658 41.7218 106.641 41.7094 107.725 40.5137C109.432 38.6378 110.956 36.9514 112.335 35.4203C113.414 34.2215 113.428 34.2371 112.357 35.4421ZM100.398 115.022C96.9494 115.022 93.5057 115.022 90.0566 115.022C75.8368 115.022 61.6144 115.022 47.3946 115.022C43.3966 115.022 17.9802 118.842 17.9802 110.401C17.9802 96.7887 17.9802 83.1702 17.9802 69.5611C17.9802 67.3437 17.9802 65.1293 17.9802 62.9119C17.9802 56.7906 21.8908 72.0829 21.9072 72.5146C22.3906 83.0678 28.1254 92.332 34.8325 99.0465C45.8134 110.041 61.6936 110.131 74.7281 104.876C81.6946 102.068 87.3639 96.1054 91.788 89.5866C93.9153 86.4467 95.2316 82.5926 96.4442 78.9372C96.9193 77.5148 97.6812 68.1449 98.3967 62.415C98.6097 60.7161 99.7458 60.3341 100.407 61.8746C104.435 71.2009 101.362 93.5991 101.362 99.6335C101.365 100.453 102.064 115.022 100.398 115.022ZM45.1007 88.2977C45.9991 88.9375 45.8708 90.3319 44.7648 91.4966C43.7161 92.6053 42.6674 93.7109 41.6188 94.8197C40.5128 95.9843 38.9698 96.3477 38.2106 95.5712C37.4542 94.7948 37.771 93.1705 38.8742 91.9997C39.7508 91.0711 40.6302 90.1363 41.5123 89.2015C42.6128 88.0306 44.2022 87.658 45.1007 88.2977ZM56.1198 42.9144C57.6081 42.6348 60.0605 42.6348 61.5488 42.9206C84.3326 47.2965 87.3448 88.4282 60.9426 89.9965C36.258 91.4624 32.1153 47.43 56.1198 42.9144ZM101.193 37.6285C100.792 41.582 95.2507 40.1472 92.9459 40.1472C90.0347 40.1472 86.572 40.936 84.3381 38.3956C82.6886 36.5197 83.385 31.4544 83.385 29.1189C83.385 27.6282 82.8525 22.6777 83.669 19.7553C84.1224 18.1217 86.6293 17.5161 88.134 17.3918C92.4133 17.0316 97.8833 16.5254 100.366 19.3546C102.015 21.2367 101.322 26.2958 101.322 28.6344C101.322 31.619 101.494 34.6688 101.193 37.6285ZM6.97196 13.2302C8.50399 8.83257 10.7652 5.50327 14.0422 3.96907C15.4377 3.31687 16.8141 3.1709 16.9889 3.1709C17.1637 3.1709 16.4509 4.16162 15.394 5.38526C12.9745 8.18969 10.5003 11.0562 8.00424 13.9507C6.94739 15.1775 6.41486 14.8265 6.97196 13.2302ZM4.40766 47.2033C4.38581 46.7592 4.36123 46.3151 4.33939 45.8679C4.252 44.1566 5.06307 41.7994 6.14997 40.613C11.3114 34.9731 16.2543 29.5754 21.0388 24.361C22.1284 23.1746 23.0132 22.1529 23.0132 22.0876C23.0132 22.0193 22.1311 22.9262 21.0415 24.1156C16.3444 29.2431 11.3687 34.6781 6.14177 40.3739C5.05215 41.5603 4.14003 41.9205 4.09907 41.1752C4.07449 40.728 4.04991 40.2807 4.02806 39.8304C3.98164 35.939 4.05264 31.9948 4.31754 28.2027C4.43497 26.4915 5.4372 24.1156 6.4886 22.8858C10.6887 18.0005 14.8014 13.2178 18.6793 8.71145C19.7334 7.4847 19.7443 7.49091 18.6957 8.72387C17.7563 9.82949 16.8059 10.9506 15.8446 12.0842C14.7987 13.3203 14.8069 13.3234 15.861 12.0997C17.7945 9.85434 19.7198 7.62446 21.6478 5.38836C22.7046 4.16472 24.7828 3.1709 26.2903 3.1709C27.9452 3.1709 29.6029 3.1709 31.2605 3.1709C32.768 3.1709 33.8521 3.32619 33.6828 3.52185C33.5135 3.71751 33.732 3.73924 34.1744 3.59017C34.6168 3.4411 35.0209 3.31998 35.0701 3.26718C35.1193 3.21438 36.3837 3.1709 37.8911 3.1709C45.2891 3.1709 52.6843 3.1709 60.0823 3.1709C69.8616 3.1709 79.641 3.1709 89.4176 3.1709C96.5152 3.1709 103.321 2.12429 109.159 6.96605C110.374 7.9754 112.125 9.97546 112.797 11.5097C113.272 12.5873 113.608 13.7768 113.854 15.0408C114.173 16.7148 113.362 19.0596 112.259 20.2273C111.071 21.482 109.886 22.7398 108.7 23.9945C107.592 25.1623 106.663 25.0691 106.625 23.7864C106.603 22.9821 106.587 22.2025 106.587 21.4634C106.587 21.3205 106.576 21.1901 106.559 21.0628C106.532 20.8423 107.187 19.9509 108.026 19.0689C108.862 18.19 108.894 17.4757 108.105 17.4757C107.313 17.4757 106.505 17.6465 106.303 17.8577C106.095 18.0689 105.336 16.9384 104.063 16.0098C99.7376 12.8451 90.9632 14.4259 86.9379 14.4259C86.8724 14.4259 86.7986 14.4321 86.7276 14.4414C86.6102 14.4539 86.46 14.4787 86.3972 14.4756C86.359 14.4756 86.3262 14.4756 86.2743 14.4787C75.8259 15.8607 78.1035 27.7493 78.1035 36.5757C78.1035 38.8024 78.8873 40.3522 80.1516 41.4236C81.3614 42.4485 82.0032 43.4175 81.2713 44.197C80.8398 44.6535 80.4029 45.1225 79.9496 45.607C79.6656 45.9207 79.4088 46.2126 79.1603 46.489C78.7234 46.9766 77.7266 46.7219 76.8882 45.989C76.0444 45.2591 75.7658 44.2746 76.3066 43.7125C76.85 43.1473 77.1204 42.7156 76.9128 42.7498C76.7053 42.7839 76.2082 43.2001 75.7986 43.6721C75.3917 44.1442 74.0317 43.7684 72.6854 42.9951C70.1894 41.5634 67.4912 40.5354 64.7467 39.9546C63.2638 39.6379 61.8001 39.4298 61.4942 39.4049C61.1883 39.3801 60.8115 39.3956 60.6531 39.4142C60.4947 39.4329 59.1456 39.5416 57.6518 39.7869C46.0756 41.6876 36.5066 49.958 34.442 63.9367C33.7565 68.5735 34.3218 72.8004 35.7556 76.5303C36.3591 78.1049 36.725 79.6142 36.3645 80.0211C36.0041 80.4341 35.7119 81.7261 35.7119 82.9156C35.7119 84.1113 35.9877 84.7541 36.3263 84.3535C36.5311 84.1144 36.7359 83.8752 36.9408 83.6361C37.2084 83.3224 37.4733 83.0087 37.7382 82.6982C38.1779 82.1795 39.2866 82.869 40.3571 84.074C40.5892 84.3411 40.8296 84.602 41.0753 84.8504C42.1868 86.0088 42.3206 87.8101 41.2556 89.0245C40.4472 89.9468 39.6143 90.8941 38.7623 91.8631C37.6972 93.0805 35.9768 93.0743 35.0291 91.7357C29.2069 83.5243 26.6508 72.4215 27.3581 61.6416C27.5055 59.3869 26.7436 57.48 25.4574 56.2719C24.294 55.1787 23.005 54.775 23.005 54.5079C23.005 54.2377 22.8275 54.2253 22.6063 54.4768C22.3851 54.7315 21.7652 54.9054 21.2245 54.9644C20.9077 54.9986 20.5882 55.0638 20.2577 55.1694C16.156 56.4831 14.0586 59.4211 13.0373 63.1261C12.5867 64.7628 11.5817 67.1418 10.5194 68.3592C9.47073 69.5673 8.41934 70.7661 7.37067 71.9743C6.30836 73.1948 5.48636 73.6482 5.51913 72.9867C5.54644 72.4339 5.56009 72.0208 5.56009 71.7848C5.56009 71.3966 5.52186 70.3531 5.45632 68.8127C5.38805 67.176 6.18001 64.8498 7.2314 63.62C11.8766 58.1943 16.4946 52.8246 21.0879 47.5015C22.1448 46.2778 23.0023 44.2778 23.0023 43.0355C23.0023 41.7932 22.1202 41.7466 21.0388 42.9423C17.0135 47.3741 12.2426 52.632 7.02931 58.3838C5.94788 59.5764 5.00572 59.2099 4.9238 57.5608C4.84187 55.9116 5.65021 53.6072 6.73165 52.4115C11.3714 47.2778 16.1423 41.9951 21.047 36.5663C22.1284 35.3706 23.0023 33.2961 23.0023 31.9327C23.0023 30.5724 22.1339 30.4481 21.0634 31.6562C16.1915 37.1595 11.325 42.6473 6.49133 48.104C5.42901 49.3276 4.49232 48.9145 4.40766 47.2033ZM10.4539 93.1115C9.36149 94.3942 8.26641 95.6737 7.17405 96.9564C6.12539 98.1862 5.27335 97.944 5.27335 96.4098C5.27335 94.8756 6.12266 92.6302 7.16859 91.4003C8.38657 89.9686 9.59635 88.5462 10.8007 87.1331C11.8493 85.9032 12.6795 86.2418 12.5703 87.894C12.4638 89.5431 11.5025 91.8817 10.4539 93.1115ZM11.9586 97.1769C11.9012 98.416 11.0137 100.407 9.95137 101.624C8.93821 102.786 7.92505 103.944 6.90915 105.106C5.84684 106.323 5.03849 106.277 5.1095 105.003C5.1805 103.733 6.09262 101.711 7.15767 100.5C8.48215 98.9937 9.80663 97.4874 11.1338 95.9874C11.2922 95.8104 11.4479 95.6365 11.6063 95.4594C11.8685 95.1675 12.0132 95.9377 11.9586 97.1769ZM5.27608 82.6858C5.27608 80.8317 5.27608 78.9776 5.27608 77.1266C5.29793 76.7881 5.32251 76.4526 5.34162 76.1297C5.37712 75.5799 6.3029 74.1917 7.40618 73.0178C8.36745 71.9929 9.32872 70.9649 10.2873 69.9338C11.3851 68.7568 12.1634 69.1947 12.1552 70.9059C12.147 72.1513 12.1825 73.4184 12.2371 74.6824C12.3109 76.3967 11.5326 78.7571 10.4593 79.9652C9.37788 81.1795 8.29918 82.3907 7.21501 83.6113C6.14177 84.8163 5.27608 84.4032 5.27608 82.6858ZM4.94837 113.392C4.89649 112.547 4.87737 111.677 4.8801 110.798C4.88556 109.084 5.83591 106.711 6.90369 105.5C7.91139 104.36 8.91909 103.224 9.92952 102.081C11 100.873 11.8275 101.286 11.8575 103C11.8712 103.69 11.893 104.373 11.9285 105.047C12.0187 106.761 11.355 109.159 10.3282 110.413C9.28776 111.677 8.24729 112.944 7.20409 114.208C6.16908 115.454 5.05488 115.103 4.94837 113.392ZM9.70832 124.498C8.68423 123.498 7.79669 122.361 7.06208 121.063C6.24555 119.622 6.71253 117.351 7.80762 116.174C8.76343 115.149 9.7247 114.125 10.6887 113.094C11.7865 111.916 12.9362 112.342 13.5971 113.882C14.7222 116.507 16.5082 118.199 19.3074 118.199C19.3511 118.199 19.3948 118.199 19.4385 118.199C19.5095 118.199 18.6766 119.15 17.5733 120.32C16.3526 121.612 15.1319 122.904 13.9139 124.203C12.8106 125.364 10.8498 125.619 9.70832 124.498ZM114.779 103.444C114.744 105.158 113.815 107.513 112.731 108.702C110.598 111.041 108.414 113.435 106.158 115.917C105.076 117.106 105.076 118.069 106.161 118.069C107.245 118.069 108.993 117.087 110.063 115.873C110.901 114.917 111.743 113.963 112.586 113.007C113.654 111.792 114.457 112.028 114.351 113.528C114.244 115.028 113.774 116.653 113.329 117.156C112.881 117.659 112.851 118.069 113.256 118.069C113.66 118.069 113.971 118.296 113.949 118.578C113.938 118.749 113.925 118.92 113.908 119.091C112.057 137.237 68.3187 129.96 59.4843 129.96C51.2342 129.96 36.2744 132.439 24.0728 130.606C22.579 130.383 22.2349 129.125 23.2918 127.905C23.3655 127.824 23.4392 127.734 23.513 127.65C24.5726 126.429 25.2252 125.088 25.0122 124.625C24.7992 124.165 23.7369 124.727 22.62 125.88C22.112 126.408 21.6013 126.932 21.0879 127.457C19.9683 128.603 18.0621 129.268 16.8578 128.827C15.6562 128.383 15.6234 126.995 16.7431 125.849C18.2424 124.314 19.7416 122.78 21.2381 121.246C22.3578 120.097 23.2317 118.948 23.2098 118.678C23.1907 118.41 24.395 118.19 25.9025 118.19C49.9125 118.19 73.9225 118.19 97.9298 118.19C104.506 118.19 106.273 113.625 106.666 108.174C106.789 106.463 106.974 104.835 107.231 104.55L107.701 104.031C109.44 102.04 111.175 100.053 112.911 98.062C113.974 96.8446 114.842 97.2483 114.831 98.9658C114.829 100.463 114.809 101.953 114.779 103.444Z" fill="black"/>
</svg>
