<svg width="48" height="47" viewBox="0 0 48 47" fill="none" xmlns="http://www.w3.org/2000/svg">
<ellipse cx="24" cy="23.3366" rx="24" ry="23.0868" fill="white"/>
<path d="M34 10.5959V2.95486C34 2.59617 33.8732 2.25416 33.6678 2.04561C33.4564 1.83707 33.1847 1.77033 32.937 1.87878L16.4553 9.11109C16.1171 9.26124 15.8876 9.69501 15.8876 10.1872V17.8366V17.8449V32.468C15.0239 31.6422 13.9187 31.1917 12.7591 31.1917C11.5331 31.1917 10.3675 31.7006 9.47967 32.6182C8.52544 33.6109 8 34.9539 8 36.4137C8 37.8735 8.52544 39.2165 9.47967 40.2092C10.3675 41.1268 11.5271 41.6356 12.7591 41.6356C13.9912 41.6356 15.1508 41.1268 16.0386 40.2092C16.9928 39.2165 17.5182 37.8735 17.5182 36.4137V18.6624L32.3693 12.1391V25.2024C31.5057 24.3765 30.4005 23.9261 29.2409 23.9261C28.0149 23.9261 26.8492 24.4349 25.9614 25.3525C25.0072 26.3452 24.4818 27.6882 24.4818 29.148C24.4818 30.6078 25.0072 31.9508 25.9614 32.9435C26.8492 33.8611 28.0088 34.3699 29.2409 34.3699C30.4729 34.3699 31.6325 33.8611 32.5203 32.9435C33.4746 31.9508 34 30.6078 34 29.148V10.6043C34 10.5959 34 10.5959 34 10.5959ZM12.7591 39.3834C11.062 39.3834 9.63066 38.0236 9.63066 36.4137C9.63066 34.8037 11.062 33.444 12.7591 33.444C14.4562 33.444 15.8876 34.8037 15.8876 36.4137C15.8876 38.032 14.4562 39.3834 12.7591 39.3834ZM17.5182 16.2933V11.0047L32.3693 4.48975V9.77843L17.5182 16.2933ZM29.2469 32.1177C27.5498 32.1177 26.1185 30.758 26.1185 29.148C26.1185 27.538 27.5498 26.1783 29.2469 26.1783C30.944 26.1783 32.3754 27.538 32.3754 29.148C32.3693 30.758 30.938 32.1177 29.2469 32.1177Z" fill="#202020"/>
</svg>
