<svg width="45" height="46" viewBox="0 0 45 46" fill="none" xmlns="http://www.w3.org/2000/svg">
<path d="M22.5 45.4614C34.92 45.4614 45 35.334 45 22.8556C45 10.3772 34.92 0.249756 22.5 0.249756C10.08 0.249756 0 10.3772 0 22.8556C0 35.334 10.08 45.4614 22.5 45.4614ZM31.635 33.5105V33.5124C30.1219 33.5124 25.3425 28.1849 11.91 30.9504C11.5556 31.0427 11.0925 31.1877 10.83 31.1877C9.11438 31.1877 8.78625 28.6088 10.6313 28.2151C18.0619 26.5667 25.6556 26.7118 32.1319 30.6038C33.6769 31.5946 33.0206 33.5105 31.635 33.5105ZM34.0781 27.5331C33.8662 27.4766 33.9281 27.6631 32.9587 27.1507C27.2869 23.7787 18.8344 22.4186 11.3119 24.47C10.8769 24.5887 10.6406 24.7074 10.2319 24.7074C8.22375 24.7074 7.69125 21.6726 9.87938 21.0528C18.7219 18.5567 28.2075 20.0129 34.8112 23.9595C35.5462 24.3966 35.8369 24.9636 35.8369 25.7548C35.8275 26.7382 35.0662 27.5331 34.0781 27.5331ZM8.5275 13.4327C17.0081 10.9386 29.8425 11.726 37.8225 16.4054C39.8681 17.5903 39.0638 20.5875 36.8887 20.5875L36.8869 20.5856C36.4144 20.5856 36.1237 20.4669 35.715 20.2296C29.2594 16.3564 17.7075 15.4277 10.2338 17.5244C9.90563 17.6148 9.49688 17.7599 9.06188 17.7599C7.86375 17.7599 6.94875 16.8198 6.94875 15.6085C6.94875 14.3709 7.71187 13.6701 8.5275 13.4327Z" fill="white"/>
</svg>
