<svg width="50" height="49" viewBox="0 0 50 49" fill="none" xmlns="http://www.w3.org/2000/svg">
<path d="M25 0.824219C11.1933 0.824219 0 11.5912 0 24.873C0 38.1548 11.1933 48.9218 25 48.9218C38.8066 48.9218 50 38.1548 50 24.873C50 11.5912 38.8066 0.824219 25 0.824219ZM37.6813 27.4739C38.8465 28.5688 40.0793 29.5991 41.1253 30.8071C41.5887 31.3414 42.0256 31.894 42.3581 32.5155C42.8327 33.4016 42.4041 34.3734 41.5795 34.4261L36.4578 34.4251C35.135 34.5304 34.0824 34.0172 33.1949 33.1472C32.4864 32.454 31.8292 31.7134 31.1468 30.9965C30.868 30.7023 30.5744 30.4252 30.2246 30.2073C29.5263 29.7703 28.9197 29.9042 28.5197 30.6058C28.112 31.3198 28.0189 32.111 27.9801 32.9057C27.9243 34.0674 27.5601 34.371 26.3483 34.4256C23.7591 34.5422 21.3023 34.1643 19.0189 32.9086C17.0046 31.801 15.4455 30.2378 14.087 28.4679C11.4414 25.0177 9.41535 21.2309 7.59488 17.3353C7.18517 16.458 7.48491 15.9886 8.49105 15.9704C10.1627 15.9394 11.8343 15.9433 13.5059 15.9689C14.1862 15.9793 14.6363 16.3537 14.8977 16.9712C15.801 19.1092 16.9084 21.1433 18.2962 23.0298C18.666 23.5322 19.0435 24.0331 19.5811 24.3878C20.1744 24.7795 20.6266 24.6501 20.9064 24.0129C21.0854 23.6079 21.1627 23.1749 21.2015 22.741C21.3345 21.2545 21.3504 19.7685 21.1202 18.2879C20.977 17.3614 20.4353 16.7631 19.4752 16.5879C18.9862 16.4989 19.0578 16.3247 19.2957 16.056C19.7084 15.5915 20.0951 15.3042 20.868 15.3042L26.6547 15.3032C27.5668 15.4754 27.7714 15.869 27.8951 16.7527L27.9003 22.9388C27.8895 23.2807 28.0788 24.2943 28.7171 24.5182C29.2286 24.6806 29.5662 24.286 29.8721 23.9745C31.2598 22.5579 32.2486 20.8859 33.134 19.1554C33.5248 18.3922 33.8619 17.6025 34.1893 16.8113C34.4327 16.2263 34.8113 15.9384 35.4977 15.9483L41.0701 15.9546C41.2343 15.9546 41.401 15.9561 41.5637 15.9832C42.5028 16.1377 42.7601 16.5264 42.4696 17.4077C42.0123 18.7923 41.1238 19.9456 40.2552 21.1019C39.3243 22.3399 38.3315 23.5346 37.4097 24.778C36.5627 25.9147 36.6297 26.4869 37.6813 27.4739Z" fill="white"/>
</svg>
