<svg width="57" height="40" viewBox="0 0 57 40" fill="none" xmlns="http://www.w3.org/2000/svg">
<path d="M55.7389 5.71532L55.8101 6.1765C55.1214 3.75532 53.2618 1.88709 50.8987 1.20709L50.8488 1.19533C46.4053 3.23057e-05 28.5241 3.25176e-05 28.5241 3.25176e-05C28.5241 3.25176e-05 10.6881 -0.0234971 6.19937 1.19533C3.79115 1.88709 1.92918 3.75532 1.25231 6.12709L1.24043 6.1765C-0.419671 14.7671 -0.431546 25.0894 1.31406 34.2871L1.24043 33.8212C1.92918 36.2424 3.78878 38.1106 6.15187 38.7906L6.20175 38.8024C10.6406 40 28.5265 40 28.5265 40C28.5265 40 46.3601 40 50.8512 38.8024C53.2618 38.1106 55.1238 36.2424 55.8006 33.8706L55.8125 33.8212C56.5678 29.8259 57 25.2282 57 20.5318C57 20.36 57 20.1859 56.9976 20.0118C57 19.8518 57 19.6612 57 19.4706C57 14.7718 56.5678 10.1741 55.7389 5.71532ZM22.8194 28.5906V11.4306L37.701 20.0235L22.8194 28.5906Z" fill="white"/>
</svg>
